<svg width="451" height="387" viewBox="0 0 451 387" fill="none" xmlns="http://www.w3.org/2000/svg">
<g opacity="0.73" filter="url(#filter0_i_89_4061)">
<path d="M-317.615 -196.59C-283.918 -143.884 -285.912 -146.859 -253.585 -93.8016C-221.383 -40.9484 -181.951 24.7502 -122.379 107.389C-104.583 132.076 -81.6393 158.369 -59.3923 181.709C-36.3103 205.925 -19.5475 218.048 9.42915 237.834C35.21 255.438 50.7666 264.446 78.6646 277.881C107.257 291.649 124.012 298.252 153.06 306.661C179.041 314.182 201.646 318.668 218.615 319.842C235.197 320.988 248.059 321.092 267.995 320.374C283.805 319.806 309.964 316.708 335.145 313.051C360.326 309.393 383.428 304.728 397.41 301.478C424.248 295.239 448.284 286.692 464.412 282.397C466.318 281.888 516.589 261.858 518.475 261.344C520.36 260.83 522.894 260.503 526.801 258.086" stroke="#F4C73C" stroke-width="131" stroke-linecap="round"/>
</g>
<defs>
<filter id="filter0_i_89_4061" x="-402.123" y="-262.099" width="994.434" height="648.426" filterUnits="userSpaceOnUse" color-interpolation-filters="sRGB">
<feFlood flood-opacity="0" result="BackgroundImageFix"/>
<feBlend mode="normal" in="SourceGraphic" in2="BackgroundImageFix" result="shape"/>
<feColorMatrix in="SourceAlpha" type="matrix" values="0 0 0 0 0 0 0 0 0 0 0 0 0 0 0 0 0 0 127 0" result="hardAlpha"/>
<feOffset dx="-85"/>
<feGaussianBlur stdDeviation="9.5"/>
<feComposite in2="hardAlpha" operator="arithmetic" k2="-1" k3="1"/>
<feColorMatrix type="matrix" values="0 0 0 0 1 0 0 0 0 1 0 0 0 0 1 0 0 0 0.4 0"/>
<feBlend mode="normal" in2="shape" result="effect1_innerShadow_89_4061"/>
</filter>
</defs>
</svg>
