<svg width="1379" height="259" viewBox="0 0 1379 259" fill="none" xmlns="http://www.w3.org/2000/svg">
<g opacity="0.7" filter="url(#filter0_i_2098_2203)">
<path d="M56.0524 -101.312C147.376 -53.014 142.12 -55.6435 232.292 -5.3436C322.117 44.763 433.117 107.675 583.733 176.302C628.727 196.803 681.048 214.434 729.566 228.104C779.905 242.287 848.192 258.403 900.616 261.127C1068.21 269.836 1125.57 245.121 1173.95 228.632C1217.18 213.899 1244.75 205.442 1285.84 183.27C1322.9 163.276 1354.54 139.263 1374.46 123.249C1393.92 107.601 1416.5 88.314 1437.75 66.1676C1454.6 48.605 1474.62 23.3509 1498.63 -8.99716C1522.64 -41.3452 1533.96 -59.436 1547.24 -81.3121C1570.43 -119.51 1587.98 -149.29 1601.35 -173.114C1602.93 -175.931 1640.39 -258.264 1641.94 -261.069C1643.49 -263.874 1645.95 -267.064 1647.77 -275.023" stroke="#70D0FF" stroke-width="109" stroke-linecap="round"/>
</g>
<defs>
<filter id="filter0_i_2098_2203" x="0.964844" y="-333.958" width="1737.19" height="650.812" filterUnits="userSpaceOnUse" color-interpolation-filters="sRGB">
<feFlood flood-opacity="0" result="BackgroundImageFix"/>
<feBlend mode="normal" in="SourceGraphic" in2="BackgroundImageFix" result="shape"/>
<feColorMatrix in="SourceAlpha" type="matrix" values="0 0 0 0 0 0 0 0 0 0 0 0 0 0 0 0 0 0 127 0" result="hardAlpha"/>
<feOffset dx="64" dy="-5"/>
<feGaussianBlur stdDeviation="17.65"/>
<feComposite in2="hardAlpha" operator="arithmetic" k2="-1" k3="1"/>
<feColorMatrix type="matrix" values="0 0 0 0 1 0 0 0 0 1 0 0 0 0 1 0 0 0 0.4 0"/>
<feBlend mode="normal" in2="shape" result="effect1_innerShadow_2098_2203"/>
</filter>
</defs>
</svg>
