<svg width="450" height="363" viewBox="0 0 450 363" fill="none" xmlns="http://www.w3.org/2000/svg">
<g opacity="0.73" filter="url(#filter0_i_2098_2366)">
<path d="M-318.615 -198.59C-284.918 -145.884 -286.912 -148.859 -254.585 -95.8016C-222.383 -42.9484 -182.951 22.7502 -123.379 105.389C-105.583 130.076 -82.6393 156.369 -60.3923 179.709C-37.3103 203.925 -20.5475 216.048 8.42915 235.834C34.21 253.438 49.7666 262.446 77.6646 275.881C106.257 289.649 123.012 296.252 152.06 304.661C178.041 312.182 200.646 316.668 217.615 317.842C234.197 318.988 247.059 319.092 266.995 318.374C282.805 317.806 308.964 314.708 334.145 311.051C359.326 307.393 382.428 302.728 396.41 299.478C423.248 293.239 447.284 284.692 463.412 280.397C465.318 279.888 515.589 259.858 517.475 259.344C519.36 258.83 521.894 258.503 525.801 256.086" stroke="#AD9DFF" stroke-width="129" stroke-linecap="round"/>
</g>
<defs>
<filter id="filter0_i_2098_2366" x="-402.123" y="-263.099" width="992.433" height="646.426" filterUnits="userSpaceOnUse" color-interpolation-filters="sRGB">
<feFlood flood-opacity="0" result="BackgroundImageFix"/>
<feBlend mode="normal" in="SourceGraphic" in2="BackgroundImageFix" result="shape"/>
<feColorMatrix in="SourceAlpha" type="matrix" values="0 0 0 0 0 0 0 0 0 0 0 0 0 0 0 0 0 0 127 0" result="hardAlpha"/>
<feOffset dx="-85"/>
<feGaussianBlur stdDeviation="9.5"/>
<feComposite in2="hardAlpha" operator="arithmetic" k2="-1" k3="1"/>
<feColorMatrix type="matrix" values="0 0 0 0 1 0 0 0 0 1 0 0 0 0 1 0 0 0 0.4 0"/>
<feBlend mode="normal" in2="shape" result="effect1_innerShadow_2098_2366"/>
</filter>
</defs>
</svg>
