<svg width="243" height="31" viewBox="0 0 243 31" fill="none" xmlns="http://www.w3.org/2000/svg">
<g opacity="0.5">
<path d="M120.625 3.26905C153.9 2.62416 184.088 3.46141 205.993 5.33367C216.951 6.27028 225.805 7.4633 231.928 8.85079C234.997 9.54621 237.33 10.2794 238.886 11.0294C239.665 11.4049 240.202 11.7622 240.536 12.0839C240.866 12.4024 240.936 12.6233 240.943 12.7525C240.951 12.8816 240.905 13.1047 240.609 13.4354C240.311 13.7694 239.815 14.1466 239.078 14.5515C237.606 15.3602 235.359 16.1822 232.372 16.995C226.413 18.6166 217.707 20.15 206.874 21.5089C185.219 24.2254 155.185 26.2308 121.91 26.8757C88.6356 27.5206 58.4472 26.6823 36.5425 24.8101C25.5846 23.8735 16.7299 22.6804 10.6069 21.293C7.53812 20.5975 5.20562 19.8643 3.64937 19.1143C2.86982 18.7386 2.33275 18.3817 1.99877 18.0599C1.66823 17.7414 1.59895 17.5204 1.59192 17.3913C1.58491 17.2622 1.62997 17.039 1.92517 16.7084C2.22344 16.3743 2.7205 15.9973 3.45756 15.5922C4.92894 14.7835 7.17675 13.9615 10.1634 13.1488C16.1225 11.5271 24.8287 9.99375 35.6616 8.63483C57.3165 5.91835 87.3501 3.91394 120.625 3.26905Z" stroke="#B87EFF" stroke-width="1.8"/>
<path d="M122.264 2.91915C155.545 3.47656 185.594 5.40196 207.27 8.0615C218.114 9.39195 226.832 10.9025 232.804 12.5084C235.797 13.3134 238.052 14.1291 239.529 14.9339C240.269 15.337 240.769 15.714 241.07 16.0472C241.368 16.3769 241.415 16.5996 241.409 16.7285C241.403 16.8574 241.335 17.0782 241.007 17.3973C240.676 17.72 240.141 18.0787 239.365 18.4564C237.814 19.2105 235.487 19.9504 232.424 20.6539C226.312 22.0575 217.466 23.2738 206.516 24.2392C184.625 26.1691 154.443 27.0856 121.163 26.5282C87.8824 25.9708 57.8329 24.0454 36.1566 21.3859C25.3131 20.0554 16.5948 18.5449 10.623 16.9389C7.62995 16.134 5.37558 15.3173 3.89787 14.5125C3.15772 14.1094 2.65781 13.7334 2.35696 13.4002C2.05944 13.0705 2.01245 12.8479 2.01839 12.7189C2.02441 12.59 2.09218 12.3693 2.41996 12.0501C2.75145 11.7274 3.28554 11.3678 4.06224 10.99C5.6127 10.2359 7.93966 9.49697 11.0031 8.79349C17.1153 7.38991 25.9608 6.17356 36.9115 5.20816C58.8019 3.27831 88.9841 2.36173 122.264 2.91915Z" stroke="#B87EFF" stroke-width="1.8"/>
</g>
</svg>
