<svg width="296" height="31" viewBox="0 0 296 31" fill="none" xmlns="http://www.w3.org/2000/svg">
<g opacity="0.5">
<path d="M146.993 3.26835C187.55 2.62332 224.352 3.46022 251.061 5.3336C264.42 6.27062 275.229 7.46506 282.713 8.85685C286.463 9.55411 289.333 10.2931 291.26 11.0552C292.227 11.4378 292.904 11.806 293.328 12.1411C293.758 12.4818 293.807 12.6874 293.811 12.7489C293.815 12.81 293.795 13.0173 293.409 13.3718C293.031 13.7197 292.404 14.1086 291.49 14.5212C289.668 15.3429 286.902 16.1715 283.253 16.9864C275.969 18.6131 265.341 20.1485 252.134 21.508C225.73 24.2261 189.117 26.2306 148.56 26.8756C108.003 27.5206 71.2022 26.6837 44.4933 24.8103C31.1339 23.8733 20.3243 22.6789 12.8397 21.2871C9.09018 20.5899 6.22039 19.8508 4.29343 19.0888C3.32608 18.7062 2.6502 18.3379 2.22635 18.0028C1.79428 17.6612 1.74721 17.4551 1.74316 17.394C1.73922 17.3324 1.75974 17.1259 2.14468 16.7721C2.5232 16.4243 3.14886 16.0353 4.06343 15.6228C5.88529 14.8011 8.65106 13.9725 12.3002 13.1575C19.5845 11.5308 30.2129 9.9955 43.4199 8.63595C69.8242 5.91786 106.436 3.91338 146.993 3.26835Z" stroke="#00B0FF" stroke-width="1.8"/>
<path d="M148.991 2.91868C189.554 3.47621 226.186 5.40139 252.616 8.06251C265.836 9.39356 276.479 10.9068 283.779 12.5177C287.436 13.3248 290.209 14.1466 292.039 14.9643C292.958 15.3749 293.588 15.7629 293.97 16.11C294.358 16.4637 294.38 16.6706 294.377 16.7313C294.373 16.7925 294.327 16.9978 293.9 17.3395C293.479 17.6755 292.806 18.0457 291.842 18.4304C289.922 19.1966 287.06 19.9409 283.317 20.6462C275.845 22.0542 265.047 23.2727 251.696 24.2385C225.005 26.1695 188.212 27.0865 147.648 26.529C107.085 25.9714 70.453 24.0453 44.0226 21.3842C30.8027 20.0531 20.1597 18.5399 12.8599 16.9289C9.20303 16.1219 6.42942 15.3001 4.59966 14.4824C3.68094 14.0718 3.05118 13.6838 2.6693 13.3367C2.28095 12.9836 2.25854 12.7775 2.26188 12.7163C2.26534 12.6556 2.31036 12.4498 2.73921 12.1072C3.15994 11.7711 3.83281 11.401 4.79675 11.0163C6.71658 10.2501 9.5793 9.50576 13.3221 8.80046C20.7936 7.39251 31.5919 6.17398 44.9425 5.20814C71.634 3.27717 108.427 2.36115 148.991 2.91868Z" stroke="#00B0FF" stroke-width="1.8"/>
</g>
</svg>
