<svg width="292" height="73" viewBox="0 0 292 73" fill="none" xmlns="http://www.w3.org/2000/svg">
<path d="M146.566 18.2317C186.041 20.8872 221.656 25.4412 247.322 30.6533C260.161 33.2607 270.474 36.026 277.527 38.7859C281.06 40.1682 283.722 41.5298 285.469 42.8373C287.259 44.1771 287.857 45.2831 287.815 46.1306C287.774 46.9781 287.071 47.9966 285.161 49.0875C283.298 50.1522 280.519 51.1477 276.875 52.0472C269.597 53.8431 259.081 55.2062 246.071 56.0747C220.064 57.8108 184.237 57.5597 144.762 54.9042C105.287 52.2487 69.6726 47.6938 44.0073 42.4817C31.1681 39.8743 20.8542 37.1099 13.8011 34.35C10.2684 32.9677 7.60576 31.6062 5.85909 30.2986C4.06944 28.9589 3.47104 27.8528 3.51262 27.0053C3.55432 26.1578 4.25734 25.1394 6.16657 24.0484C8.02992 22.9837 10.8086 21.9882 14.4535 21.0887C21.7307 19.2928 32.2477 17.9288 45.2579 17.0603C71.265 15.3243 107.091 15.5762 146.566 18.2317Z" stroke="#FFD551" stroke-width="1.8"/>
<path d="M148.592 17.8864C187.906 22.356 223.206 28.5367 248.492 34.9113C261.141 38.1002 271.249 41.3291 278.092 44.402C281.52 45.9411 284.078 47.4186 285.724 48.8006C287.41 50.2169 287.922 51.3455 287.814 52.1869C287.705 53.0282 286.92 54.0086 284.922 55.0059C282.972 55.9791 280.112 56.8416 276.392 57.568C268.964 59.0184 258.326 59.8887 245.231 60.1509C219.055 60.6748 183.203 58.7664 143.889 54.2968C104.574 49.8272 69.2752 43.6465 43.9897 37.2719C31.3405 34.083 21.2329 30.8541 14.389 27.7812C10.9612 26.2421 8.40349 24.7637 6.75793 23.3817C5.07172 21.9655 4.55931 20.8377 4.66786 19.9964C4.77654 19.155 5.56132 18.1738 7.55949 17.1764C9.50927 16.2032 12.3695 15.3416 16.0898 14.6152C23.5179 13.1649 34.1551 12.2945 47.25 12.0324C73.4266 11.5085 109.278 13.4168 148.592 17.8864Z" stroke="#FFD551" stroke-width="1.8"/>
</svg>
