<svg width="242" height="27" viewBox="0 0 242 27" fill="none" xmlns="http://www.w3.org/2000/svg">
<path d="M121.264 1.91915C154.545 2.47656 184.594 4.40196 206.27 7.0615C217.114 8.39195 225.832 9.90247 231.804 11.5084C234.797 12.3134 237.052 13.1291 238.529 13.9339C239.269 14.337 239.769 14.714 240.07 15.0472C240.368 15.3769 240.415 15.5996 240.409 15.7285C240.403 15.8574 240.335 16.0782 240.007 16.3973C239.676 16.72 239.141 17.0787 238.365 17.4564C236.814 18.2105 234.487 18.9504 231.424 19.6539C225.312 21.0575 216.466 22.2738 205.516 23.2392C183.625 25.1691 153.443 26.0856 120.163 25.5282C86.8824 24.9708 56.8329 23.0454 35.1566 20.3859C24.3131 19.0554 15.5948 17.5449 9.62301 15.9389C6.62995 15.134 4.37558 14.3173 2.89787 13.5125C2.15772 13.1094 1.65781 12.7334 1.35696 12.4002C1.05944 12.0705 1.01245 11.8479 1.01839 11.7189C1.02441 11.59 1.09218 11.3693 1.41996 11.0501C1.75145 10.7274 2.28554 10.3678 3.06224 9.99001C4.6127 9.23593 6.93966 8.49697 10.0031 7.79349C16.1153 6.38991 24.9608 5.17356 35.9115 4.20816C57.8019 2.27831 87.9841 1.36173 121.264 1.91915Z" stroke="#B87EFF" stroke-width="1.8"/>
</svg>
