<svg width="128" height="28" viewBox="0 0 128 28" fill="none" xmlns="http://www.w3.org/2000/svg">
<path d="M63.9965 3.02025C81.4417 2.4342 97.2534 3.18849 108.707 4.87363C114.442 5.71728 119.039 6.78787 122.194 8.01928C123.774 8.63634 124.941 9.27453 125.703 9.9074C126.469 10.5435 126.725 11.0855 126.738 11.5181C126.752 11.9505 126.53 12.5079 125.806 13.1939C125.086 13.8765 123.961 14.5917 122.423 15.3135C119.353 16.754 114.832 18.131 109.163 19.3577C97.8384 21.808 82.1074 23.623 64.6621 24.209C47.217 24.7951 31.4061 24.0398 19.9521 22.3546C14.2177 21.511 9.62022 20.4404 6.46583 19.209C4.8851 18.5919 3.71769 17.9538 2.9556 17.3209C2.19019 16.6851 1.93488 16.1436 1.92115 15.7112C1.90756 15.2787 2.12817 14.7205 2.85236 14.0344C3.5731 13.3517 4.698 12.6366 6.23667 11.9147C9.30712 10.4742 13.8277 9.09731 19.497 7.87056C30.8211 5.42023 46.5514 3.60632 63.9965 3.02025Z" stroke="#FFD551" stroke-width="1.8"/>
<path d="M64.6172 3.01859C82.0647 3.523 97.8031 5.26325 109.138 7.66055C114.812 8.86074 119.339 10.2165 122.416 11.6426C123.957 12.3572 125.085 13.0671 125.808 13.7464C126.536 14.4292 126.76 14.9862 126.748 15.4188C126.736 15.8513 126.483 16.3947 125.72 17.0342C124.96 17.6706 123.796 18.3134 122.219 18.9378C119.07 20.1839 114.477 21.277 108.746 22.1474C97.2997 23.8862 81.4918 24.7144 64.0443 24.2101C46.5968 23.7057 30.8584 21.9654 19.5236 19.5681C13.849 18.3679 9.32233 17.0113 6.24561 15.5851C4.70379 14.8704 3.57571 14.1616 2.85198 13.4823C2.12472 12.7996 1.90185 12.2425 1.91344 11.8099C1.92513 11.3774 2.17792 10.834 2.94087 10.1944C3.70018 9.55793 4.86482 8.9144 6.44283 8.28991C9.5918 7.04376 14.1847 5.95169 19.9153 5.08121C31.3618 3.3425 47.1697 2.5142 64.6172 3.01859Z" stroke="#FFD551" stroke-width="1.8"/>
</svg>
