<svg width="133" height="28" viewBox="0 0 133 28" fill="none" xmlns="http://www.w3.org/2000/svg">
<path d="M66.1549 3.02656C84.197 2.44043 100.551 3.19471 112.4 4.88047C118.331 5.72439 123.09 6.79523 126.357 8.02855C127.994 8.64666 129.204 9.28683 129.995 9.92215C130.793 10.5628 131.051 11.1028 131.065 11.523C131.078 11.9433 130.856 12.4989 130.102 13.19C129.353 13.8753 128.187 14.5927 126.594 15.3157C123.414 16.7585 118.734 18.1359 112.87 19.3631C101.156 21.8143 84.8853 23.6285 66.8432 24.2146C48.801 24.8007 32.4472 24.0465 20.5985 22.3607C14.6669 21.5168 9.9081 20.4459 6.64122 19.2126C5.00395 18.5945 3.79375 17.9543 3.00262 17.319C2.20497 16.6784 1.94713 16.1384 1.93348 15.7181C1.91982 15.2978 2.14207 14.7422 2.89646 14.0512C3.64468 13.3659 4.81078 12.6485 6.40448 11.9254C9.58443 10.4827 14.2637 9.10523 20.128 7.8781C31.8423 5.42684 48.1127 3.61269 66.1549 3.02656Z" stroke="#FFD551" stroke-width="1.8"/>
<path d="M66.795 3.02491C84.8396 3.52937 101.118 5.26985 112.843 7.66806C118.713 8.86864 123.399 10.2249 126.585 11.6532C128.182 12.3691 129.351 13.0812 130.103 13.7631C130.86 14.4507 131.085 15.0053 131.073 15.4257C131.061 15.846 130.806 16.3872 130.011 17.0314C129.223 17.6703 128.016 18.3159 126.381 18.9414C123.12 20.1895 118.366 21.2819 112.438 22.1526C100.597 23.892 84.2472 24.7203 66.2025 24.2158C48.1579 23.7114 31.8794 21.9709 20.1542 19.5727C14.2844 18.3721 9.59894 17.0159 6.4125 15.5875C4.81554 14.8717 3.6462 14.1596 2.89489 13.4776C2.13738 12.79 1.91262 12.2354 1.92437 11.8151C1.93612 11.3948 2.19152 10.8536 2.98626 10.2094C3.7745 9.5705 4.98179 8.92485 6.61625 8.29934C9.87752 7.05125 14.6314 5.95888 20.5591 5.08812C32.4001 3.34874 48.7503 2.52044 66.795 3.02491Z" stroke="#FFD551" stroke-width="1.8"/>
</svg>
