<svg width="70" height="29" viewBox="0 0 70 29" fill="none" xmlns="http://www.w3.org/2000/svg">
<path d="M35.1481 4.01178C44.5979 3.42878 53.1384 4.18103 59.2978 5.84521C62.3821 6.67856 64.8193 7.72783 66.4731 8.91353C68.1375 10.1067 68.8838 11.3421 68.9042 12.5346C68.9244 13.7269 68.2218 15.0509 66.602 16.4466C64.9921 17.8337 62.5959 19.1811 59.5466 20.3929C53.4571 22.8128 44.9604 24.6161 35.5106 25.1991C26.0609 25.7821 17.5212 25.0297 11.3619 23.3656C8.27743 22.5322 5.83944 21.4831 4.18552 20.2974C2.5216 19.1044 1.77606 17.8695 1.75547 16.6772C1.73507 15.4848 2.43679 14.16 4.05665 12.7643C5.66655 11.3772 8.06355 10.0297 11.113 8.81794C17.2025 6.39813 25.6985 4.59479 35.1481 4.01178Z" stroke="#FFD551" stroke-width="1.8"/>
<path d="M35.486 4.01004C44.937 4.51183 53.437 6.24275 59.5321 8.6102C62.5843 9.79571 64.9843 11.1213 66.5974 12.4945C68.2207 13.8763 68.9263 15.1954 68.9088 16.3883C68.8911 17.5811 68.1477 18.8225 66.4865 20.0298C64.8355 21.2297 62.4003 22.2995 59.3179 23.1594C53.1627 24.8764 44.625 25.7028 35.1741 25.2011C25.723 24.6993 17.2222 22.9684 11.127 20.6009C8.07486 19.4154 5.67484 18.0888 4.06173 16.7156C2.43878 15.334 1.73394 14.0156 1.75138 12.8229C1.76894 11.63 2.51133 10.3877 4.17266 9.18031C5.82362 7.98045 8.25903 6.91154 11.3412 6.0517C17.4965 4.33462 26.035 3.50828 35.486 4.01004Z" stroke="#FFD551" stroke-width="1.8"/>
</svg>
