<svg width="25" height="25" viewBox="0 0 25 25" fill="none" xmlns="http://www.w3.org/2000/svg">
<g clip-path="url(#clip0_89_4140)">
<path d="M18.8266 1.46996L6.83132 13.8555C6.37313 14.3261 6.01283 14.8828 5.77128 15.4935C5.52973 16.1043 5.41171 16.7568 5.42408 17.4135L5.44557 18.7563C5.44982 19.0215 5.55923 19.2741 5.74974 19.4586C5.94026 19.6432 6.19627 19.7444 6.46145 19.7402L7.80428 19.7187C8.46098 19.71 9.10945 19.5712 9.71214 19.3102C10.3148 19.0493 10.8598 18.6713 11.3154 18.1983L23.3107 5.81275C23.8857 5.21764 24.2011 4.4188 24.1879 3.59143C24.1746 2.76406 23.8338 1.97572 23.2401 1.39932C22.6367 0.840794 21.8413 0.536441 21.0192 0.549599C20.1971 0.562757 19.4118 0.892412 18.8266 1.46996ZM21.8743 4.42156L9.87895 16.8071C9.32411 17.3765 8.56714 17.7041 7.77227 17.7189L7.42931 17.7244L7.42382 17.3815C7.41318 16.5865 7.71643 15.8195 8.26777 15.2467L20.2631 2.86115C20.4734 2.65371 20.7555 2.53532 21.0509 2.53059C21.3463 2.52586 21.6321 2.63516 21.8489 2.83576C22.0622 3.04289 22.1846 3.32615 22.1894 3.62342C22.1941 3.92069 22.0808 4.20771 21.8743 4.42156Z" fill="#2C2C2C"/>
<path d="M23.299 9.44839C23.0338 9.45263 22.7811 9.56205 22.5966 9.75256C22.4121 9.94307 22.3108 10.1991 22.3151 10.4643L22.3954 15.4846L18.396 15.5486C17.6004 15.5614 16.8425 15.8896 16.289 16.4612C15.7354 17.0327 15.4316 17.8007 15.4444 18.5963L15.5084 22.5958L5.50965 22.7558C4.7141 22.7685 3.94608 22.4647 3.37453 21.9112C2.80299 21.3576 2.47475 20.5997 2.46202 19.8042L2.23797 5.80598C2.22523 5.01043 2.52905 4.24241 3.08258 3.67086C3.63612 3.09932 4.39402 2.77108 5.18957 2.75835L14.2304 2.61364C14.4956 2.6094 14.7482 2.49998 14.9327 2.30947C15.1173 2.11896 15.2185 1.86295 15.2143 1.59777C15.21 1.33258 15.1006 1.07995 14.9101 0.895438C14.7196 0.710927 14.4636 0.609654 14.1984 0.613899L5.15756 0.758604C3.83216 0.781407 2.56992 1.32897 1.6477 2.28119C0.725483 3.23341 0.218595 4.51253 0.238222 5.83798L0.462274 19.8362C0.485076 21.1616 1.03264 22.4238 1.98486 23.3461C2.93708 24.2683 4.2162 24.7752 5.54165 24.7555L16.8832 24.574C17.5401 24.5654 18.1887 24.4265 18.7915 24.1656C19.3944 23.9046 19.9395 23.5266 20.3953 23.0536L23.0084 20.3534C23.4667 19.8829 23.8271 19.3262 24.0689 18.7155C24.3106 18.1047 24.4288 17.4521 24.4167 16.7954L24.3148 10.4323C24.3106 10.1671 24.2012 9.91444 24.0107 9.72993C23.8201 9.54542 23.5641 9.44414 23.299 9.44839ZM18.9589 21.6624C18.5634 22.0698 18.0595 22.3555 17.5069 22.4858L17.4441 18.5643C17.4399 18.2991 17.5411 18.0431 17.7256 17.8526C17.9101 17.662 18.1628 17.5526 18.428 17.5484L22.3525 17.4856C22.2376 18.041 21.9685 18.5528 21.576 18.9622L18.9589 21.6624Z" fill="#2C2C2C"/>
</g>
<defs>
<clipPath id="clip0_89_4140">
<rect width="24" height="24" fill="white" transform="translate(0.158203 0.838623) rotate(-0.916985)"/>
</clipPath>
</defs>
</svg>
