<svg width="29" height="30" viewBox="0 0 29 30" fill="none" xmlns="http://www.w3.org/2000/svg">
<g clip-path="url(#clip0_89_4125)">
<path d="M15.3552 19.2912C14.585 19.4718 13.7785 19.4199 13.0378 19.1422C12.297 18.8644 11.6552 18.3733 11.1936 17.7308C10.732 17.0883 10.4713 16.3233 10.4444 15.5327C10.4175 14.742 10.6257 13.9611 11.0427 13.2888C11.4596 12.6164 12.0665 12.0828 12.7867 11.7554C13.5069 11.428 14.3081 11.3215 15.0888 11.4494C15.8695 11.5773 16.5948 11.9339 17.1728 12.474C17.7509 13.0141 18.1559 13.7134 18.3365 14.4837C18.5787 15.5165 18.4006 16.6033 17.8415 17.5049C17.2824 18.4065 16.3881 19.049 15.3552 19.2912ZM13.9855 13.4496C13.6004 13.5399 13.2507 13.7424 12.9807 14.0314C12.7106 14.3205 12.5324 14.6831 12.4684 15.0735C12.4045 15.4638 12.4577 15.8644 12.6214 16.2245C12.7851 16.5846 13.0519 16.8881 13.3881 17.0965C13.7242 17.305 14.1147 17.4091 14.51 17.3957C14.9054 17.3822 15.2878 17.2519 15.6091 17.0211C15.9303 16.7903 16.1759 16.4694 16.3148 16.099C16.4537 15.7286 16.4796 15.3254 16.3893 14.9402C16.2682 14.4238 15.9469 13.9766 15.4961 13.6971C15.0453 13.4176 14.502 13.3285 13.9855 13.4496ZM22.7948 24.7366C22.4315 23.1874 21.4677 21.8458 20.1153 21.0072C18.7629 20.1686 17.1328 19.9015 15.5835 20.2648C14.0343 20.6281 12.6927 21.5919 11.8541 22.9443C11.0155 24.2967 10.7484 25.9268 11.1117 27.4761C11.1722 27.7343 11.3329 27.9579 11.5583 28.0976C11.7837 28.2374 12.0554 28.2819 12.3136 28.2214C12.5718 28.1608 12.7954 28.0002 12.9351 27.7748C13.0749 27.5494 13.1194 27.2777 13.0589 27.0195C12.8167 25.9866 12.9947 24.8999 13.5538 23.9983C14.1129 23.0967 15.0073 22.4542 16.0401 22.212C17.073 21.9698 18.1597 22.1478 19.0613 22.7069C19.9629 23.266 20.6054 24.1604 20.8476 25.1932C20.9082 25.4514 21.0688 25.675 21.2942 25.8148C21.5196 25.9546 21.7913 25.9991 22.0495 25.9385C22.3077 25.878 22.5313 25.7173 22.6711 25.4919C22.8109 25.2665 22.8554 24.9948 22.7948 24.7366ZM19.3705 10.1327C18.6003 10.3133 17.7938 10.2615 17.053 9.98372C16.3123 9.70597 15.6705 9.21479 15.2089 8.5723C14.7473 7.92981 14.4865 7.16486 14.4597 6.37419C14.4328 5.58352 14.641 4.80264 15.0579 4.1303C15.4749 3.45795 16.0818 2.92434 16.802 2.59695C17.5222 2.26955 18.3233 2.16307 19.104 2.29097C19.8848 2.41887 20.61 2.7754 21.1881 3.31549C21.7662 3.85558 22.1711 4.55497 22.3517 5.3252C22.5939 6.35805 22.4159 7.44481 21.8568 8.3464C21.2977 9.24798 20.4034 9.89054 19.3705 10.1327ZM18.0008 4.29116C17.6157 4.38146 17.266 4.58393 16.9959 4.87298C16.7259 5.16202 16.5476 5.52465 16.4837 5.91501C16.4197 6.30537 16.473 6.70592 16.6367 7.06602C16.8004 7.42613 17.0672 7.7296 17.4033 7.93806C17.7395 8.14653 18.13 8.25063 18.5253 8.23719C18.9206 8.22376 19.3031 8.0934 19.6243 7.86259C19.9456 7.63179 20.1912 7.3109 20.3301 6.94052C20.4689 6.57014 20.4949 6.16689 20.4046 5.78177C20.2835 5.26535 19.9622 4.81818 19.5114 4.53863C19.0606 4.25909 18.5172 4.17007 18.0008 4.29116ZM26.8101 15.5782C26.4454 14.0297 25.4813 12.6892 24.1293 11.8508C22.7773 11.0125 21.148 10.7447 19.5988 11.1063C19.3406 11.1669 19.117 11.3275 18.9772 11.5529C18.8375 11.7783 18.7929 12.05 18.8535 12.3082C18.914 12.5664 19.0747 12.79 19.3001 12.9298C19.5255 13.0695 19.7972 13.1141 20.0554 13.0535C21.0882 12.8113 22.175 12.9894 23.0766 13.5485C23.9782 14.1075 24.6207 15.0019 24.8629 16.0347C24.9234 16.2929 25.0841 16.5165 25.3095 16.6563C25.5349 16.7961 25.8066 16.8406 26.0648 16.78C26.323 16.7195 26.5466 16.5589 26.6864 16.3335C26.8261 16.1081 26.8706 15.8364 26.8101 15.5782ZM7.68739 12.8722C6.91715 13.0528 6.11066 13.0009 5.3699 12.7232C4.62913 12.4454 3.98737 11.9542 3.52575 11.3117C3.06414 10.6692 2.80342 9.9043 2.77655 9.11363C2.74968 8.32296 2.95788 7.54208 3.37481 6.86974C3.79174 6.19739 4.39869 5.66378 5.11889 5.33638C5.83909 5.00898 6.6402 4.9025 7.42092 5.0304C8.20164 5.1583 8.92689 5.51484 9.50498 6.05493C10.0831 6.59502 10.488 7.2944 10.6686 8.06464C10.9108 9.09749 10.7328 10.1842 10.1737 11.0858C9.61458 11.9874 8.72024 12.63 7.68739 12.8722ZM6.31767 7.0306C5.93255 7.1209 5.58286 7.32337 5.31282 7.61241C5.04277 7.90146 4.8645 8.26409 4.80055 8.65445C4.7366 9.04481 4.78984 9.44536 4.95354 9.80546C5.11724 10.1656 5.38405 10.469 5.72022 10.6775C6.05639 10.886 6.44683 10.9901 6.84216 10.9766C7.2375 10.9632 7.61997 10.8328 7.94122 10.602C8.26246 10.3712 8.50805 10.0503 8.64693 9.67996C8.7858 9.30958 8.81173 8.90633 8.72143 8.52121C8.60034 8.00478 8.27906 7.55761 7.82827 7.27807C7.37747 6.99852 6.8341 6.90951 6.31767 7.0306ZM5.39102 20.6005C5.14884 19.5676 5.32687 18.4809 5.88596 17.5793C6.44505 16.6777 7.33939 16.0351 8.37225 15.7929C8.63046 15.7324 8.85405 15.5718 8.99382 15.3464C9.13359 15.121 9.1781 14.8493 9.11755 14.5911C9.05701 14.3328 8.89637 14.1093 8.67097 13.9695C8.44558 13.8297 8.17389 13.7852 7.91567 13.8458C6.36723 14.2105 5.02673 15.1746 4.18835 16.5266C3.34998 17.8785 3.08221 19.5079 3.44383 21.057C3.50437 21.3153 3.66501 21.5388 3.89041 21.6786C4.11581 21.8184 4.3875 21.8629 4.64571 21.8023C4.90392 21.7418 5.12751 21.5812 5.26728 21.3558C5.40705 21.1304 5.45156 20.8587 5.39102 20.6005Z" fill="#2C2C2C"/>
</g>
<defs>
<clipPath id="clip0_89_4125">
<rect width="24" height="24" fill="white" transform="translate(0.0195312 6.45312) rotate(-13.1962)"/>
</clipPath>
</defs>
</svg>
