<svg width="28" height="27" viewBox="0 0 28 27" fill="none" xmlns="http://www.w3.org/2000/svg">
<path d="M11.7849 1.99026C9.49593 2.43571 7.44467 3.49046 5.71166 5.10907C4.86676 5.89745 3.80963 7.32874 3.22968 8.4691C2.97931 8.96003 2.51677 10.1929 2.36466 10.7735C2.19542 11.4217 2.03969 12.4083 1.98921 13.1631C1.93144 14.0884 2.09694 15.8178 2.32914 16.7153C2.66305 17.9852 3.09441 18.9911 3.7708 20.0914C4.50847 21.2896 5.23464 22.121 6.36241 23.0555C7.49441 23.9849 8.44898 24.5397 9.76611 25.0363C10.9754 25.4913 12.0455 25.7238 13.3564 25.8106C14.2823 25.8682 16.0127 25.7026 16.9109 25.4704C18.1816 25.1366 19.1881 24.7054 20.2892 24.0293C21.4882 23.2919 22.3202 22.5661 23.2554 21.4389C24.1855 20.3075 24.7408 19.3534 25.2378 18.0371C25.5693 17.161 25.7228 16.5945 25.8668 15.7317C26.0541 14.5817 26.0656 13.9627 25.9413 12.6633C25.8169 11.364 25.6882 10.7584 25.2862 9.66484C24.9812 8.84501 24.7231 8.31784 24.2315 7.52059C23.4938 6.32236 22.7676 5.49095 21.6398 4.55646C20.5078 3.62709 19.5533 3.07224 18.2361 2.57567C17.0315 2.12022 15.933 1.88574 14.6701 1.80848C13.9723 1.76677 12.4334 1.86216 11.7849 1.99026ZM14.8089 3.01213C16.609 3.17948 18.1776 3.68972 19.6804 4.59775C20.2917 4.96848 21.4907 5.95747 21.9709 6.48696C23.169 7.81093 23.9803 9.28512 24.4872 11.0809C24.6732 11.7423 24.8709 13.8082 24.8137 14.4929C24.6565 16.3522 24.1396 17.9535 23.2143 19.4806C22.8433 20.0916 21.8536 21.29 21.3237 21.77C19.9988 22.9675 18.5236 23.7784 16.7267 24.2853C16.0648 24.4713 13.9976 24.6691 13.3125 24.612C11.4521 24.4552 9.84987 23.9387 8.32187 23.0142C7.71059 22.6435 6.51152 21.6545 6.03136 21.125C4.83327 19.801 4.022 18.3268 3.51505 16.5311C3.32904 15.8697 3.13134 13.8038 3.18853 13.1191C3.28497 12.0061 3.48394 11.0767 3.82789 10.1335C4.28019 8.89214 4.80255 7.98841 5.6743 6.93805C6.54093 5.88345 7.32975 5.1995 8.46357 4.52027C9.50787 3.89205 10.4224 3.53567 11.876 3.18903C11.9546 3.17208 12.5294 3.11235 13.1617 3.06128C14.0563 2.98982 14.4187 2.97872 14.8089 3.01213Z" fill="#2C2C2C" stroke="#2C2C2C" stroke-width="0.7"/>
<path d="M13.4969 16.7979C13.695 16.7751 13.8821 16.7243 14.0002 16.6556C14.1216 16.5849 14.2041 16.5112 14.2807 16.3884C14.3594 16.2623 14.4329 16.0832 14.5303 15.7975C14.5749 15.6684 14.6268 15.5329 14.6736 15.4188C14.7196 15.3065 14.7634 15.2094 14.7931 15.1611C14.8109 15.1325 14.8502 15.0889 14.8991 15.0382C14.95 14.9852 15.0164 14.9189 15.0944 14.8449C15.2507 14.6965 15.4536 14.5137 15.6653 14.3311C16.5057 13.6041 17.0347 13.0496 17.3401 12.5286C17.6431 12.0114 17.7275 11.5238 17.6703 10.9254C17.5844 10.0281 17.1723 9.29953 16.4972 8.78523C15.8209 8.27002 14.8758 7.96715 13.7215 7.93052C13.1122 7.90856 12.3682 7.97963 11.922 8.10175C10.9932 8.35713 10.1834 8.86346 9.6226 9.47646C9.06116 10.0902 8.75339 10.8052 8.81569 11.4804L8.83242 11.6142C8.85159 11.7385 8.87975 11.8353 8.92033 11.9177C8.9739 12.0264 9.05133 12.1162 9.17123 12.2126C9.42868 12.415 9.77423 12.4896 10.1563 12.4185C10.425 12.3688 10.6058 12.2883 10.7637 12.123C10.9251 11.9539 11.0668 11.6912 11.2448 11.2656C11.4444 10.7814 11.632 10.4575 11.8833 10.2392C12.1361 10.0196 12.4466 9.91305 12.8787 9.84667C13.6848 9.72236 14.3677 9.92732 14.7378 10.431L14.8077 10.5362C14.9103 10.7059 14.9467 10.8404 14.9794 11.1829C14.9977 11.3733 15.0056 11.4927 14.9945 11.5964C14.9832 11.7025 14.9524 11.7894 14.9003 11.9145C14.7486 12.2806 14.399 12.6863 13.7205 13.3125C13.0931 13.8895 12.7017 14.3087 12.5106 14.6114L12.5116 14.6113C12.2191 15.0838 12.1402 15.7574 12.321 16.1972C12.3686 16.315 12.4656 16.4433 12.5855 16.5516C12.6755 16.6329 12.775 16.6999 12.8695 16.7422L12.962 16.7755C13.1006 16.8142 13.299 16.8207 13.4969 16.7979Z" fill="#2C2C2C" stroke="#2C2C2C" stroke-width="0.133333"/>
<path d="M12.6059 19.5459C12.7538 20.5603 13.8763 21.0637 14.7432 20.5676L14.9129 20.4542C15.3332 20.1366 15.5225 19.6542 15.4379 19.1032C15.3194 18.3076 14.5929 17.7905 13.811 17.9099L13.6541 17.9416C12.949 18.1303 12.4958 18.8206 12.6059 19.5459Z" fill="#2C2C2C" stroke="#2C2C2C" stroke-width="0.133333"/>
</svg>
