<svg width="24" height="24" viewBox="0 0 24 24" fill="none" xmlns="http://www.w3.org/2000/svg">
<g clip-path="url(#clip0_89_4134)">
<path d="M19 8H16V5C16 2.24 13.76 0 11 0H5C2.24 0 0 2.24 0 5V11C0 13.76 2.24 16 5 16H8V19C8 21.76 10.24 24 13 24H19C21.76 24 24 21.76 24 19V13C24 10.24 21.76 8 19 8ZM22 19C22 20.65 20.65 22 19 22H13C11.35 22 10 20.65 10 19V15C10 14.45 9.55 14 9 14H5C3.35 14 2 12.65 2 11V5C2 3.35 3.35 2 5 2H11C12.65 2 14 3.35 14 5V9C14 9.55 14.45 10 15 10H19C20.65 10 22 11.35 22 13V19ZM11.87 9.03C12.15 9.51 11.98 10.12 11.51 10.4C11.04 10.67 10.65 11.07 10.38 11.55C10.2 11.88 9.86 12.06 9.5 12.06C9.34 12.06 9.17 12.02 9.02 11.93C8.54 11.66 8.36 11.05 8.63 10.57C9.07 9.78 9.72 9.12 10.5 8.66C10.98 8.38 11.59 8.55 11.87 9.02V9.03ZM15.33 13.5C14.89 14.26 14.26 14.89 13.5 15.33C13.34 15.42 13.17 15.46 13 15.46C12.65 15.46 12.32 15.28 12.13 14.96C11.85 14.48 12.02 13.87 12.49 13.59C12.95 13.33 13.33 12.95 13.59 12.49C13.87 12.01 14.48 11.85 14.96 12.12C15.44 12.4 15.6 13.01 15.33 13.49V13.5Z" fill="#2C2C2C"/>
</g>
<defs>
<clipPath id="clip0_89_4134">
<rect width="24" height="24" fill="white"/>
</clipPath>
</defs>
</svg>
