<svg width="27" height="27" viewBox="0 0 27 27" fill="none" xmlns="http://www.w3.org/2000/svg">
<g clip-path="url(#clip0_89_4119)">
<path d="M14.6995 13.7757C14.6346 14.6012 13.9119 15.2184 13.0865 15.1534C12.261 15.0884 11.6438 14.3658 11.7088 13.5403C11.7738 12.7149 12.4964 12.0977 13.3219 12.1627C14.1473 12.2276 14.7645 12.9503 14.6995 13.7757ZM18.3064 12.555C17.481 12.49 16.7583 13.1072 16.6934 13.9327C16.6284 14.7581 17.2456 15.4808 18.071 15.5457C18.8965 15.6107 19.6191 14.9935 19.6841 14.1681C19.7491 13.3426 19.1319 12.62 18.3064 12.555ZM8.33727 11.7703C7.51183 11.7054 6.78917 12.3226 6.7242 13.148C6.65923 13.9735 7.27643 14.6961 8.10188 14.7611C8.92732 14.8261 9.64998 14.2089 9.71495 13.3834C9.77992 12.558 9.16272 11.8353 8.33727 11.7703ZM25.1405 14.9386L24.6179 21.578C24.4016 24.3265 21.9895 26.3866 19.241 26.1703L13.3422 25.706C6.36282 25.1567 1.14413 19.9391 1.20405 13.5702C1.23654 10.086 2.76757 6.79396 5.40464 4.53893C8.04172 2.2839 11.533 1.28276 14.9769 1.78954C21.1842 2.70442 25.6489 8.47954 25.1405 14.9386ZM23.1466 14.7816C23.5728 9.36738 19.8569 4.5299 14.6858 3.7678C14.4587 3.73388 14.231 3.70893 14.0037 3.69104C11.3559 3.48264 8.72851 4.32708 6.70441 6.0586C4.50617 7.93791 3.22983 10.6832 3.20373 13.5891C3.15344 18.9818 7.48369 23.2397 13.5001 23.7133L19.3988 24.1775C21.0477 24.3073 22.4952 23.0711 22.625 21.4222L23.1476 14.7827L23.1466 14.7816Z" fill="#2C2C2C"/>
</g>
<defs>
<clipPath id="clip0_89_4119">
<rect width="24" height="24" fill="white" transform="translate(2.18359 0.753784) rotate(4.50035)"/>
</clipPath>
</defs>
</svg>
