<svg width="28" height="28" viewBox="0 0 28 28" fill="none" xmlns="http://www.w3.org/2000/svg">
<g clip-path="url(#clip0_89_4122)">
<path d="M14.0214 13.6215C15.1984 13.7725 16.3938 13.5711 17.4564 13.0428C18.519 12.5145 19.401 11.6829 19.991 10.6533C20.581 9.62365 20.8524 8.44219 20.771 7.2583C20.6895 6.07441 20.2588 4.94127 19.5333 4.00217C18.8078 3.06307 17.8201 2.36019 16.6952 1.98241C15.5702 1.60463 14.3585 1.56892 13.2133 1.8798C12.068 2.19068 11.0407 2.83418 10.2612 3.72893C9.48166 4.62367 8.98497 5.72948 8.83392 6.90652C8.633 8.48459 9.06636 10.0779 10.0389 11.3368C11.0114 12.5957 12.4437 13.4174 14.0214 13.6215ZM15.2943 3.7028C16.079 3.8035 16.8162 4.13463 17.4127 4.65431C18.0092 5.17399 18.4382 5.85888 18.6454 6.62238C18.8527 7.38587 18.8289 8.19368 18.577 8.94365C18.3252 9.69361 17.8566 10.3521 17.2305 10.8357C16.6044 11.3194 15.849 11.6065 15.0597 11.6608C14.2705 11.7151 13.4828 11.5342 12.7964 11.1409C12.11 10.7475 11.5556 10.1595 11.2034 9.45111C10.8512 8.74272 10.7169 7.94579 10.8176 7.1611C10.9527 6.10886 11.5002 5.15337 12.3397 4.50481C13.1792 3.85625 14.242 3.56776 15.2943 3.7028Z" fill="#2C2C2C"/>
<path d="M13.7666 15.6053C11.3996 15.3042 9.00973 15.9544 7.12143 17.4131C5.23313 18.8719 4.00059 21.0201 3.69424 23.3865C3.66048 23.6496 3.7326 23.9153 3.89474 24.1251C4.05688 24.335 4.29575 24.4719 4.55881 24.5057C4.82187 24.5394 5.08757 24.4673 5.29745 24.3052C5.50733 24.143 5.64421 23.9041 5.67797 23.6411C5.91428 21.7997 6.87242 20.1276 8.34159 18.9926C9.81077 17.8576 11.6706 17.3527 13.5121 17.5891C15.3535 17.8254 17.0256 18.7835 18.1606 20.2527C19.2955 21.7219 19.8004 23.5817 19.5641 25.4231C19.5303 25.6862 19.6024 25.9519 19.7646 26.1618C19.9267 26.3717 20.1656 26.5085 20.4287 26.5423C20.6917 26.5761 20.9574 26.5039 21.1673 26.3418C21.3772 26.1797 21.5141 25.9408 21.5478 25.6777C21.8489 23.3107 21.1988 20.9208 19.74 19.0325C18.2813 17.1442 16.133 15.9117 13.7666 15.6053Z" fill="#2C2C2C"/>
</g>
<defs>
<clipPath id="clip0_89_4122">
<rect width="24" height="24" fill="white" transform="translate(3.64648 0.19165) rotate(7.31301)"/>
</clipPath>
</defs>
</svg>
