<svg width="1390" height="174" viewBox="0 0 1390 174" fill="none" xmlns="http://www.w3.org/2000/svg">
<g style="mix-blend-mode:plus-darker">
<path d="M26.0872 56.6836V126.508C26.0872 146.797 37.2096 162.223 58.3691 162.223C78.7148 162.223 92.5499 145.173 92.5499 124.884V56.692H125.374V190.378H95.8052L93.635 172.245C79.7999 185.785 67.0499 192.272 48.3319 192.272C16.3298 192.272 -7 168.185 -7 126.778V56.692L26.0872 56.6836Z" fill="#D5DCEB"/>
<path d="M273.483 173.05C258.021 188.197 241.744 194.151 221.941 194.151C183.148 194.151 150.875 170.876 150.875 123.515C150.875 76.1539 183.157 52.8877 221.941 52.8877C240.93 52.8877 255.579 58.2919 270.228 72.6356L249.34 94.5571C241.473 87.5291 231.707 84.0107 222.483 84.0107C200.239 84.0107 183.971 100.249 183.971 123.515C183.971 148.955 201.332 162.487 221.941 162.487C232.521 162.487 243.1 159.501 251.239 151.382L273.483 173.05Z" fill="#D5DCEB"/>
<path d="M398.268 56.6842H430.007V190.099H398.81L397.183 170.605C389.587 186.302 368.707 193.88 353.778 194.15C314.172 194.421 284.883 170.064 284.883 123.244C284.883 77.244 315.537 53.1574 354.592 53.428C372.497 53.428 389.578 61.8093 397.183 75.0789L398.268 56.6842ZM317.97 123.252C317.97 148.692 335.603 163.847 357.568 163.847C409.653 163.847 409.653 82.9358 357.568 82.9358C335.603 82.9273 317.97 97.8122 317.97 123.252Z" fill="#D5DCEB"/>
<path d="M560.486 190.098V120.274C560.486 99.976 549.356 84.5498 528.196 84.5498C507.859 84.5498 494.024 101.6 494.024 121.889V190.089H461.199V56.412H490.768L492.939 74.5362C506.502 61.2835 520.058 54.5176 536.885 54.5176C568.353 54.5176 593.582 78.0545 593.582 120.003V190.098H560.486Z" fill="#D5DCEB"/>
<path d="M713.483 92.1256C703.989 83.1947 693.146 80.2176 680.396 80.2176C664.662 80.2176 655.981 85.0891 655.981 93.4788C655.981 102.131 663.848 107.011 680.93 108.102C706.159 109.717 738.169 115.4 738.169 150.854C738.169 174.399 718.909 194.697 680.667 194.697C659.508 194.697 638.348 191.178 618.816 170.889L635.093 147.344C644.588 157.898 666.29 165.747 681.201 166.026C693.68 166.288 705.345 159.801 705.345 150.05C705.345 140.848 697.749 137.068 678.76 135.977C653.531 134.083 623.428 124.881 623.428 94.5698C623.428 63.7258 655.43 52.9004 679.845 52.9004C700.733 52.9004 716.467 56.9514 731.93 70.4832L713.483 92.1256Z" fill="#D5DCEB"/>
<path d="M764.758 245.841V56.6835H795.675L797.845 75.0867C808.154 60.2017 826.058 53.7148 841.249 53.7148C882.475 53.7148 909.874 84.2882 909.874 123.53C909.874 162.502 885.196 193.346 842.334 193.346C828.228 193.346 807.34 189.016 797.845 174.41V245.849L764.758 245.841ZM876.786 123.522C876.786 102.683 862.68 85.6415 838.816 85.6415C814.944 85.6415 800.838 102.692 800.838 123.522C800.838 144.352 816.3 161.402 838.816 161.402C861.324 161.402 876.786 144.361 876.786 123.522Z" fill="#D5DCEB"/>
<path d="M967.948 135.162C970.118 151.671 984.496 163.57 1007.83 163.57C1020.02 163.57 1036.03 158.978 1043.63 151.129L1064.79 171.96C1050.69 186.583 1027.63 193.619 1007.28 193.619C961.174 193.619 933.775 165.203 933.775 122.442C933.775 81.8552 961.446 52.6182 1004.84 52.6182C1049.6 52.6182 1077.54 80.2229 1072.39 135.162H967.948ZM1040.64 107.828C1038.47 90.5156 1024.92 81.8637 1005.92 81.8637C988.022 81.8637 973.373 90.5156 968.49 107.828H1040.64Z" fill="#D5DCEB"/>
<path d="M1209.38 56.6832H1241.11V190.098H1209.92L1208.29 170.604C1200.69 186.301 1179.81 193.879 1164.89 194.149C1125.29 194.42 1095.99 170.063 1095.99 123.243C1095.99 77.243 1126.64 53.1564 1165.71 53.4271C1183.6 53.4271 1200.69 61.8083 1208.29 75.0779L1209.38 56.6832ZM1129.09 123.251C1129.09 148.691 1146.72 163.846 1168.69 163.846C1220.78 163.846 1220.78 82.9348 1168.69 82.9348C1146.72 82.9263 1129.09 97.8113 1129.09 123.251Z" fill="#D5DCEB"/>
<path d="M1306.78 0.933594V110.27L1351.81 56.6846H1391.41V58.5874L1336.89 119.472L1399 187.664V190.108H1359.13L1306.78 129.756V190.108H1273.68V0.933594H1306.78Z" fill="#D5DCEB"/>
</g>
</svg>
