<svg width="1390" height="700" viewBox="0 0 1390 700" fill="none" xmlns="http://www.w3.org/2000/svg">
<g filter="url(#filter0_i_2010_7073)">
<path d="M-830.288 247.045C-660.228 283.651 -670.026 281.695 -502.279 320.459C-335.177 359.074 -128.751 407.789 152.441 457.094C236.442 471.823 334.528 482.72 425.658 490.136C520.209 497.83 578.792 495.431 677.9 489.572C766.077 484.359 816.307 478.854 901.363 465.003C988.535 450.807 1036.91 440.347 1115.18 417.768C1185.18 397.572 1242.29 376.994 1281.11 358.338C1319.05 340.107 1349.26 305.983 1391 281C1424.1 261.188 1463.86 223.079 1511.5 187.5C1559.14 151.921 1594.8 114.038 1619 92.5C1665.46 51.1587 1693.59 24.1425 1720.5 -1.5C1723.68 -4.53227 1817.75 -84.1637 1820.88 -87.1796C1824 -90.1954 1828.87 -93.7157 1832.85 -101.94" stroke="#3232E9" stroke-width="90" stroke-linecap="round"/>
</g>
<g filter="url(#filter1_i_2010_7073)">
<path d="M-765.79 344.464C-613.383 368.901 -622.123 367.643 -471.078 394.352C-320.613 420.957 -134.468 454.817 114.53 484.222C188.913 493.007 274.082 497.088 352.485 498.224C433.83 499.402 543.51 497.916 625.647 487.241C888.22 453.116 972.17 414.07 1043.9 385.443C1107.98 359.867 1149.06 344.481 1208.24 312.097C1261.61 282.894 1305.69 251.099 1333.25 230.198C1360.18 209.774 1391.17 184.961 1419.48 157.662C1441.93 136.014 1467.67 105.956 1498.09 67.8729C1528.52 29.7901 1542.26 9.02829 1558.23 -15.9717C1586.11 -59.6238 1607.04 -93.5242 1622.74 -120.472C1624.59 -123.658 1665.24 -214.559 1667.05 -217.725C1668.86 -220.892 1672.01 -224.671 1673.14 -233" stroke="#41BCF8" stroke-width="90" stroke-linecap="round"/>
</g>
<defs>
<filter id="filter0_i_2010_7073" x="-876.205" y="-146.013" width="2773.98" height="685.076" filterUnits="userSpaceOnUse" color-interpolation-filters="sRGB">
<feFlood flood-opacity="0" result="BackgroundImageFix"/>
<feBlend mode="normal" in="SourceGraphic" in2="BackgroundImageFix" result="shape"/>
<feColorMatrix in="SourceAlpha" type="matrix" values="0 0 0 0 0 0 0 0 0 0 0 0 0 0 0 0 0 0 127 0" result="hardAlpha"/>
<feOffset dx="105"/>
<feGaussianBlur stdDeviation="9.5"/>
<feComposite in2="hardAlpha" operator="arithmetic" k2="-1" k3="1"/>
<feColorMatrix type="matrix" values="0 0 0 0 1 0 0 0 0 1 0 0 0 0 1 0 0 0 0.4 0"/>
<feBlend mode="normal" in2="shape" result="effect1_innerShadow_2010_7073"/>
</filter>
<filter id="filter1_i_2010_7073" x="-814.035" y="-279.514" width="2554.42" height="819.58" filterUnits="userSpaceOnUse" color-interpolation-filters="sRGB">
<feFlood flood-opacity="0" result="BackgroundImageFix"/>
<feBlend mode="normal" in="SourceGraphic" in2="BackgroundImageFix" result="shape"/>
<feColorMatrix in="SourceAlpha" type="matrix" values="0 0 0 0 0 0 0 0 0 0 0 0 0 0 0 0 0 0 127 0" result="hardAlpha"/>
<feOffset dx="67" dy="-5"/>
<feGaussianBlur stdDeviation="9.5"/>
<feComposite in2="hardAlpha" operator="arithmetic" k2="-1" k3="1"/>
<feColorMatrix type="matrix" values="0 0 0 0 1 0 0 0 0 1 0 0 0 0 1 0 0 0 0.6 0"/>
<feBlend mode="normal" in2="shape" result="effect1_innerShadow_2010_7073"/>
</filter>
</defs>
</svg>
