<svg width="155" height="27" viewBox="0 0 155 27" fill="none" xmlns="http://www.w3.org/2000/svg">
<path d="M3.74928 6V13.7245C3.74928 15.9691 5.00961 17.6757 7.4073 17.6757C9.71278 17.6757 11.2805 15.7895 11.2805 13.5449V6.00093H15V20.7904H11.6494L11.4035 18.7844C9.83574 20.2824 8.39097 21 6.26993 21C2.64361 21 0 18.3353 0 13.7545V6.00093L3.74928 6Z" fill="#3B5CA8"/>
<path d="M31 19.61C29.2344 21.3256 27.3759 22 25.1146 22C20.6851 22 17 19.3638 17 13.9995C17 8.63521 20.6861 6 25.1146 6C27.2829 6 28.9556 6.6121 30.6283 8.23672L28.2432 10.7196C27.3449 9.92361 26.2298 9.52511 25.1766 9.52511C22.6366 9.52511 20.779 11.3643 20.779 13.9995C20.779 16.8809 22.7615 18.4136 25.1146 18.4136C26.3227 18.4136 27.5307 18.0754 28.46 17.1558L31 19.61Z" fill="#193B93"/>
<path d="M44.5007 6.37047H48V21.5392H44.5605L44.3811 19.3227C43.5437 21.1074 41.2417 21.969 39.5958 21.9997C35.2292 22.0305 32 19.2612 32 13.938C32 8.70803 35.3796 5.96949 39.6855 6.00026C41.6594 6.00026 43.5427 6.95317 44.3811 8.46186L44.5007 6.37047ZM35.6479 13.9389C35.6479 16.8313 37.5919 18.5545 40.0136 18.5545C45.7559 18.5545 45.7559 9.35516 40.0136 9.35516C37.5919 9.35419 35.6479 11.0465 35.6479 13.9389Z" fill="#193B93"/>
<path d="M63.25 21V13.275C63.25 11.0293 61.9888 9.32263 59.5913 9.32263C57.2869 9.32263 55.7193 11.209 55.7193 13.4537V20.9991H52V6.20959H55.3504L55.5963 8.21477C57.1332 6.74855 58.6691 6 60.5758 6C64.1414 6 67 8.60403 67 13.245V21H63.25Z" fill="#193B93"/>
<path d="M79.3112 10.4261C78.277 9.41835 77.096 9.08242 75.7073 9.08242C73.9935 9.08242 73.048 9.63212 73.048 10.5788C73.048 11.5551 73.9049 12.1057 75.7655 12.2288C78.5134 12.4111 82 13.0524 82 17.0528C82 19.7096 79.9021 22 75.7368 22C73.4321 22 71.1274 21.603 69 19.3136L70.7729 16.6568C71.807 17.8478 74.1708 18.7334 75.795 18.7649C77.1542 18.7945 78.4248 18.0625 78.4248 16.9622C78.4248 15.9239 77.5974 15.4973 75.5291 15.3742C72.7812 15.1604 69.5023 14.1222 69.5023 10.7019C69.5023 7.22152 72.988 6 75.6473 6C77.9224 6 79.6362 6.45711 81.3204 7.98401L79.3112 10.4261Z" fill="#193B93"/>
<path d="M85 26.9991V6.32447H88.4088L88.6481 8.33591C89.7847 6.709 91.7587 6 93.4337 6C97.9791 6 101 9.34163 101 13.6307C101 17.8903 98.2791 21.2615 93.5533 21.2615C91.998 21.2615 89.6949 20.7882 88.6481 19.1918V27L85 26.9991ZM97.3519 13.6298C97.3519 11.3522 95.7966 9.48953 93.1654 9.48953C90.5334 9.48953 88.978 11.3531 88.978 13.6298C88.978 15.9066 90.6829 17.7701 93.1654 17.7701C95.647 17.7701 97.3519 15.9075 97.3519 13.6298Z" fill="#193B93"/>
<path d="M107.682 15.3666C107.916 17.2399 109.465 18.5902 111.978 18.5902C113.292 18.5902 115.017 18.0691 115.836 17.1785L118.116 19.5422C116.596 21.2015 114.112 22 111.92 22C106.952 22 104 18.7754 104 13.9232C104 9.31766 106.981 6 111.657 6C116.479 6 119.49 9.13243 118.934 15.3666H107.682ZM115.514 12.2649C115.28 10.3004 113.819 9.31861 111.773 9.31861C109.845 9.31861 108.266 10.3004 107.74 12.2649H115.514Z" fill="#193B93"/>
<path d="M134.501 6.37047H138V21.5392H134.561L134.381 19.3227C133.544 21.1074 131.242 21.969 129.596 21.9997C125.23 22.0305 122 19.2612 122 13.938C122 8.70803 125.379 5.96949 129.686 6.00026C131.659 6.00026 133.544 6.95317 134.381 8.46186L134.501 6.37047ZM125.649 13.9389C125.649 16.8313 127.593 18.5545 130.015 18.5545C135.758 18.5545 135.758 9.35516 130.015 9.35516C127.593 9.35419 125.649 11.0465 125.649 13.9389Z" fill="#193B93"/>
<path d="M144.697 0V12.1373L149.728 6.18885H154.152V6.40008L148.061 13.1588L155 20.7287V21H150.546L144.697 14.3004V21H141V0H144.697Z" fill="#193B93"/>
</svg>
