<svg width="332" height="103" viewBox="0 0 332 103" fill="none" xmlns="http://www.w3.org/2000/svg">
<path d="M332 103H331.999V96.6953C331.999 90.5536 326.698 85.7686 321.533 82.4443C315.899 78.8175 312.089 72.4298 312.089 65.1201C312.089 57.8154 315.8 51.4024 321.389 47.7725C326.586 44.3963 331.999 39.5982 331.999 33.4004V0.0126953H304V0H332V103Z" fill="#EAEEF7"/>
<circle cx="47" cy="66.0127" r="8" fill="white"/>
<circle cx="69" cy="66.0127" r="8" fill="white"/>
<circle cx="91" cy="66.0127" r="8" fill="white"/>
<circle cx="113" cy="66.0127" r="8" fill="white"/>
<circle cx="135" cy="66.0127" r="8" fill="white"/>
<circle cx="157" cy="66.0127" r="8" fill="white"/>
<circle cx="179" cy="66.0127" r="8" fill="white"/>
<circle cx="201" cy="66.0127" r="8" fill="white"/>
<circle cx="223" cy="66.0127" r="8" fill="white"/>
<circle cx="245" cy="66.0127" r="8" fill="white"/>
<circle cx="267" cy="66.0127" r="8" fill="white"/>
<circle cx="289" cy="66.0127" r="8" fill="white"/>
<path d="M0 103H26.7324V102.998H0V103ZM0 91.8271C1.83443 87.9437 5.61545 84.7454 9.23828 82.2148C14.4795 78.5538 17.9988 72.2728 17.999 65.1055C17.999 57.948 14.5743 51.6474 9.38477 47.9814C5.72506 45.3962 1.861 42.1592 0 38.2227V91.8271Z" fill="#EAEEF7"/>
</svg>
