<svg width="145" height="46" viewBox="0 0 145 46" fill="none" xmlns="http://www.w3.org/2000/svg">
<path d="M72.8337 10.8089C92.2317 11.9059 109.676 14.4029 122.192 17.544C128.457 19.1164 133.443 20.8395 136.813 22.6051C138.501 23.4892 139.736 24.3596 140.524 25.1898C141.313 26.0204 141.578 26.7254 141.541 27.314C141.504 27.9026 141.154 28.5728 140.268 29.3088C139.383 30.0443 138.049 30.7694 136.263 31.4571C132.698 32.8305 127.534 33.9796 121.118 34.8349C108.3 36.5433 90.6692 37.0567 71.2712 35.9597C51.8732 34.8627 34.4291 32.3657 21.9129 29.2246C15.6475 27.6522 10.6619 25.9291 7.29163 24.1635C5.60393 23.2793 4.36878 22.409 3.58055 21.5788C2.79196 20.7481 2.52728 20.0432 2.56384 19.4546C2.60041 18.8659 2.95053 18.1957 3.83644 17.4598C4.72194 16.7242 6.0562 15.9992 7.84156 15.3114C11.4068 13.9381 16.5709 12.7889 22.9871 11.9337C35.8046 10.2253 53.4357 9.71192 72.8337 10.8089Z" stroke="#FF9B76" stroke-width="1.8"/>
<path d="M73.8249 10.5376C93.1087 12.9079 110.366 16.5485 122.674 20.509C128.835 22.4915 133.711 24.5406 136.974 26.526C138.608 27.5202 139.791 28.471 140.531 29.3522C141.272 30.2339 141.496 30.9556 141.427 31.5413C141.358 32.127 140.972 32.7736 140.047 33.4507C139.123 34.1274 137.753 34.7641 135.934 35.334C132.302 36.4719 127.088 37.2807 120.642 37.7137C107.765 38.5786 90.154 37.9333 70.8702 35.5629C51.5863 33.1926 34.3287 29.552 22.0213 25.5915C15.8604 23.609 10.9841 21.5599 7.72113 19.5745C6.08715 18.5803 4.90372 17.6295 4.16375 16.7483C3.42345 15.8666 3.19863 15.1449 3.26778 14.5592C3.33693 13.9735 3.7233 13.3269 4.64765 12.6498C5.57156 11.9731 6.94242 11.3364 8.76106 10.7665C12.3928 9.62863 17.6065 8.81975 24.0526 8.38681C36.9298 7.52194 54.541 8.16725 73.8249 10.5376Z" stroke="#FF9B76" stroke-width="1.8"/>
</svg>
