<svg width="419" height="84" viewBox="0 0 419 84" fill="none" xmlns="http://www.w3.org/2000/svg">
<path d="M209.427 23.3868C266.186 27.6342 317.493 33.634 354.56 39.8993C373.098 43.0328 388.048 46.2282 398.328 49.296C403.475 50.8319 407.405 52.3229 410.02 53.736C411.331 54.4442 412.262 55.107 412.848 55.7086C413.436 56.3122 413.589 56.7596 413.58 57.0743C413.57 57.3891 413.391 57.8116 412.769 58.3246C412.149 58.836 411.181 59.3567 409.834 59.866C407.144 60.8822 403.141 61.7795 397.924 62.5398C387.504 64.0585 372.428 65.0071 353.784 65.3582C316.505 66.06 265.066 64.3711 208.307 60.1237C151.548 55.8763 100.24 49.8764 63.1733 43.6112C44.6353 40.4777 29.6865 37.2822 19.4062 34.2145C14.2589 32.6785 10.3281 31.1876 7.71271 29.7744C6.40224 29.0663 5.4717 28.4034 4.88565 27.8019C4.29776 27.1983 4.14465 26.7509 4.15425 26.4362C4.16384 26.1214 4.34347 25.6989 4.9654 25.1859C5.58538 24.6746 6.55201 24.1537 7.89958 23.6445C10.589 22.6282 14.5926 21.7311 19.81 20.9707C30.23 19.452 45.3052 18.5033 63.9494 18.1523C101.228 17.4504 152.668 19.1394 209.427 23.3868Z" stroke="#FFD551" stroke-width="1.8"/>
<path d="M212.321 23.1216C268.922 29.184 319.842 36.8044 356.409 44.2224C374.698 47.9324 389.371 51.5868 399.362 54.9619C404.364 56.6516 408.148 58.2565 410.618 59.7419C411.856 60.4862 412.717 61.1731 413.238 61.7882C413.761 62.4055 413.865 62.8543 413.82 63.1656C413.774 63.4768 413.545 63.8892 412.861 64.3771C412.18 64.8635 411.148 65.3474 409.735 65.8079C406.915 66.7267 402.788 67.4852 397.455 68.0681C386.804 69.2321 371.534 69.6785 352.744 69.4171C315.173 68.8943 263.632 65.5414 207.031 59.479C150.43 53.4167 99.5098 45.7953 62.9422 38.3773C44.6536 34.6673 29.9814 31.0139 19.9902 27.6388C14.9876 25.9489 11.204 24.3433 8.73384 22.8578C7.49596 22.1133 6.63484 21.4267 6.11358 20.8115C5.59077 20.1944 5.48758 19.7464 5.53281 19.4351C5.5781 19.1239 5.80636 18.7106 6.49026 18.2226C7.17179 17.7362 8.20328 17.2522 9.61642 16.7918C12.4364 15.8729 16.564 15.1155 21.8971 14.5327C32.5488 13.3686 47.8175 12.9211 66.608 13.1826C104.179 13.7053 155.72 17.0592 212.321 23.1216Z" stroke="#FFD551" stroke-width="1.8"/>
</svg>
